# xmcd
#
# Track frame offsets:
#	150
#	19672
#	26187
#	36365
#	50507
#	62812
#	86012
#	98945
#	114687
#	131715
#	150180
#	165595
#	176892
#	184135
#
# Disc length: 2726 seconds
#
# Revision: 1
# Processed by: cddbd v1.5.1PL0 Copyright (c) Steve Scherf et al.
# Submitted via: CDex 1.50Beta5
#
DISCID=bd0aa40e
DTITLE=サウンドトラック - LOVERS'KISS
DYEAR=1900
DGENRE=Soundtrack
TTITLE0=白鳥マイカ/Shelter
TTITLE1=B-DASH/飛んだよ
TTITLE2=pinoca/展覧会の絵
TTITLE3=microstar/sweet song
TTITLE4=pinoca/Your Song
TTITLE5=NEVER GOOD ENOUGH/You're my darling
TTITLE6=神津裕之/lovers' kiss
TTITLE7=NEVER GOOD ENOUGH/Invitation
TTITLE8=SHORT CIRCUIT/The letter
TTITLE9=NEVER GOOD ENOUGH/Everything is warmth
TTITLE10=microstar/魔法のドア
TTITLE11=B-DASH/One day
TTITLE12=B-DASH/ハイパージャック
TTITLE13=白鳥マイカ/Red Clover
EXTD=
EXTT0=
EXTT1=
EXTT2=
EXTT3=
EXTT4=
EXTT5=
EXTT6=
EXTT7=
EXTT8=
EXTT9=
EXTT10=
EXTT11=
EXTT12=
EXTT13=
PLAYORDER=
